<svg xmlns="http://www.w3.org/2000/svg" width="219" height="135" viewBox="0 0 219 135">
    <g fill="none" fill-rule="nonzero">
        <g fill="#59AC51">
            <path d="M29.632 40.752H18.034V13.716h3.722c1.654 0 2.481-2.014 1.295-3.164L13.126.612a1.835 1.835 0 0 0-2.626 0l-9.925 9.94c-1.186 1.186-.36 3.164 1.295 3.164h3.704v50.027h12.424V50.189h11.598v13.518H42.02V26.191H29.614v14.56h.018zM47.36 26.191h12.424v37.516H47.36zM80.048 37.318c1.295-.773 2.715-1.15 4.298-1.15 1.564 0 3.2.36 4.854 1.06 1.69.701 3.129 1.69 4.387 2.895l7.013-8.521c-1.978-1.744-4.441-3.128-7.39-4.207a25.748 25.748 0 0 0-8.81-1.563c-4.046 0-7.66.826-10.86 2.462-3.201 1.636-5.718 3.901-7.552 6.831-1.834 2.93-2.715 6.22-2.715 9.851 0 3.667.863 6.975 2.607 9.905 1.744 2.93 4.171 5.213 7.246 6.867 3.074 1.653 6.563 2.48 10.482 2.48 2.697 0 5.556-.449 8.649-1.366 3.075-.917 5.682-2.05 7.785-3.47v-15.44H89.398v8.718c-1.978.827-3.614 1.24-4.909 1.24-1.6 0-3.056-.377-4.35-1.15a7.972 7.972 0 0 1-3.022-3.2c-.737-1.366-1.096-2.894-1.096-4.584 0-1.69.36-3.164 1.06-4.53a7.763 7.763 0 0 1 2.967-3.128zM128.631 40.752h-11.597v-14.56h-12.46v37.533h12.46V50.171h11.597v13.554h12.406V26.191h-12.406zM158.82 49.65h17.513v-9.402H158.82v-4.62h19.293v-9.437H146.36v37.534h32.22v-9.401h-19.76zM211.52 51.52c1.924-1.187 3.38-2.787 4.405-4.8 1.007-2.014 1.547-4.386 1.547-7.1 0-4.261-1.385-7.569-4.172-9.906-2.787-2.337-6.724-3.523-11.83-3.523h-18.16v37.516h12.423v-9.725h4.64l4.494 9.725h13.99L211.52 51.52zm-6.958-8.144c-.701.791-1.78 1.205-3.129 1.205h-5.717v-8.935h5.717c1.33 0 2.374.378 3.11 1.15.738.774 1.098 1.834 1.098 3.255.018 1.402-.324 2.534-1.08 3.325z"/>
        </g>
        <path fill="#C75555" d="M18.034 68.848H6.024v38.703h28.948V96.89h-16.92c-.018 0-.018-28.043-.018-28.043zM68.487 71.005c-3.254-1.69-6.887-2.552-10.914-2.552-4.028 0-7.696.863-10.914 2.552-3.255 1.69-5.772 4.027-7.57 7.011s-2.715 6.363-2.715 10.138c0 3.793.917 7.19 2.715 10.229 1.798 3.056 4.351 5.41 7.57 7.1 3.254 1.708 6.886 2.57 10.914 2.57 4.027 0 7.695-.862 10.914-2.57 3.254-1.707 5.772-4.08 7.606-7.1 1.834-3.02 2.715-6.418 2.715-10.21 0-3.758-.917-7.137-2.715-10.121-1.834-3.02-4.352-5.357-7.606-7.047zm-3.884 21.931c-.701 1.384-1.654 2.517-2.877 3.308a7.21 7.21 0 0 1-4.027 1.204c-1.475 0-2.841-.413-4.118-1.204-1.276-.791-2.283-1.924-3.02-3.308-.738-1.384-1.133-2.966-1.133-4.674 0-1.707.377-3.29 1.133-4.673a8.647 8.647 0 0 1 3.02-3.254c1.277-.791 2.625-1.187 4.118-1.187 1.492 0 2.805.378 4.027 1.187 1.205.79 2.158 1.87 2.877 3.254.701 1.384 1.061 2.93 1.061 4.673 0 1.69-.342 3.254-1.06 4.674zM122.428 94.23l-5.862-25.382-12.46.054L98.37 94.23 92.51 68.848H78.808l12.55 38.703h13.161l5.538-23.1 5.359 23.1h13.161l12.64-38.703h-13.053zM176.908 97.844h-20.39v-4.818h18.07v-9.707h-18.07V78.59h19.923v-9.743h-32.76v38.703h33.227zM199.383 97.484l4.64 10.067h14.438l-7.606-12.566c1.978-1.204 3.488-2.876 4.531-4.943 1.06-2.067 1.564-4.53 1.564-7.298 0-4.404-1.42-7.802-4.297-10.229-2.877-2.426-6.922-3.613-12.19-3.613h-18.736v52.005h-3.884c-1.708 0-2.553 2.067-1.366 3.253l10.266 10.265c.738.737 1.96.737 2.697 0l10.267-10.265c1.205-1.204.36-3.253-1.366-3.253h-3.848V97.484h4.89zm-4.782-18.893h5.88c1.384 0 2.463.378 3.2 1.187.737.79 1.133 1.887 1.133 3.343 0 1.474-.378 2.625-1.133 3.47-.737.826-1.798 1.24-3.219 1.24h-5.88v-9.222h.019v-.018z"/>
        <path fill="#FFF" d="M93.965 7.172v12.871h-5.772V7.173H83.25V2.624h15.679v4.547zM112.34 20.043V13.77h-5.393v6.273h-5.772V2.625h5.772v6.74h5.394v-6.74h5.772v17.418zM126.473 6.993v2.12h8.145V13.5h-8.145v2.157h9.17v4.386h-14.977V2.625h14.744V7.01c0-.018-8.937-.018-8.937-.018z"/>
        <g fill="#FFF">
            <path d="M87.366 121.895v7.19c-.97.648-2.193 1.187-3.614 1.6-1.42.414-2.787.63-4.027.63-1.798 0-3.435-.378-4.855-1.15a8.525 8.525 0 0 1-3.38-3.2c-.791-1.366-1.205-2.894-1.205-4.584 0-1.69.414-3.218 1.277-4.584a8.596 8.596 0 0 1 3.488-3.164c1.474-.773 3.164-1.15 5.052-1.15 1.367 0 2.715.233 4.082.737 1.366.503 2.517 1.132 3.434 1.96l-3.254 3.972a7.702 7.702 0 0 0-2.05-1.366c-.773-.324-1.547-.504-2.248-.504-.737 0-1.384.18-1.978.54-.593.36-1.06.862-1.384 1.474a4.54 4.54 0 0 0-.504 2.103c0 .79.18 1.51.504 2.121.324.63.791 1.132 1.42 1.474.594.36 1.277.54 2.014.54.594 0 1.367-.18 2.284-.558v-4.045l4.944-.036zM95.817 128.619l-.881 2.462H89.02l7.336-17.419h5.916l7.066 17.42h-6.131l-.881-2.463h-6.509zm3.344-9.24l-1.834 5.087h3.632l-1.798-5.087zM126.15 131.063v-9.527l-2.985 7.838h-3.794l-2.985-7.838v9.527h-5.034v-17.419h6.131l3.812 9.114 3.794-9.114h6.095v17.42zM139.437 118.013v2.12h8.145v4.387h-8.145v2.157h9.17v4.386H133.63v-17.419h14.743v4.387l-8.936-.018z"/>
        </g>
    </g>
</svg>
